# xmcd
#
# Track frame offsets: 
#        150
#        24344
#        45135
#        63143
#        91554
#
# Disc length: 1556 seconds
#
# Revision: 3
# Processed by: cddbd v1.5.2PL0 Copyright (c) Steve Scherf et al.
# Submitted via: ExactAudioCopy v1.0b3
#
DISCID=24061205
DTITLE=Pet Shop Boys - Memory Of The Future - Remixed
DYEAR=2012
DGENRE=Pop
TTITLE0=Memory Of The Future (Stuart Price extended mix)
TTITLE1=Memory Of The Future (Ulrich Schnauss remix)
TTITLE2=Memory Of The Future (DJ Waldo Squash remix)
TTITLE3=Memory Of The Future (Digital Dog club remix)
TTITLE4=Memory Of The Future (Digital Dog dub)
EXTD=YEAR: 2012
EXTT0=
EXTT1=
EXTT2=
EXTT3=
EXTT4=
PLAYORDER=
